<?xml version="1.0" encoding="utf-8"?>
<!-- Generator: Adobe Illustrator 16.0.0, SVG Export Plug-In . SVG Version: 6.00 Build 0)  -->
<!DOCTYPE svg PUBLIC "-//W3C//DTD SVG 1.1//EN" "http://www.w3.org/Graphics/SVG/1.1/DTD/svg11.dtd">
<svg version="1.1" id="Layer_1" xmlns="http://www.w3.org/2000/svg" xmlns:xlink="http://www.w3.org/1999/xlink" x="0px" y="0px"
	 width="500px" height="500px" viewBox="0 0 500 500" enable-background="new 0 0 500 500" xml:space="preserve">
<circle fill="#FFCB31" cx="250" cy="250" r="230.5"/>
<g>
	<g>
		<path fill="#FDBB33" d="M242.082,93.811c-86.261,0-156.19,69.927-156.19,156.188c0,86.263,69.929,156.19,156.19,156.19
			c86.263,0,156.191-69.928,156.191-156.19C398.273,163.737,328.345,93.811,242.082,93.811z M242.082,357.082
			C182.945,357.082,135,309.14,135,249.999c0-59.138,47.944-107.082,107.082-107.082c59.14,0,107.082,47.944,107.082,107.082
			C349.164,309.14,301.222,357.082,242.082,357.082z"/>
		<g>
			<path fill="#F9A133" d="M233.873,386.082c-5.271-0.3-10.565-0.909-15.729-1.811l1.06-6.078c4.933,0.862,9.986,1.444,15.02,1.729
				L233.873,386.082z M249.702,386.072l-0.356-6.159c5.028-0.287,10.084-0.876,15.017-1.743l1.067,6.076
				C260.263,385.155,254.97,385.77,249.702,386.072z M202.727,380.641c-5.05-1.505-10.061-3.326-14.895-5.414l2.445-5.663
				c4.61,1.992,9.393,3.727,14.212,5.163L202.727,380.641z M280.841,380.601l-1.768-5.912c4.81-1.44,9.586-3.179,14.198-5.176
				l2.45,5.663C290.89,377.266,285.882,379.09,280.841,380.601z M173.677,368.117c-4.551-2.629-9.002-5.559-13.23-8.705l3.684-4.949
				c4.037,3.007,8.289,5.804,12.632,8.312L173.677,368.117z M309.859,368.053l-3.09-5.335c4.341-2.517,8.587-5.313,12.62-8.323
				l3.687,4.949C318.854,362.489,314.406,365.422,309.859,368.053z M148.313,349.236c-3.828-3.608-7.487-7.479-10.877-11.509
				l4.721-3.97c3.237,3.848,6.732,7.544,10.387,10.986L148.313,349.236z M335.199,349.158l-4.236-4.485
				c3.653-3.447,7.145-7.15,10.378-10.999l4.725,3.969C342.682,341.674,339.023,345.546,335.199,349.158z M127.965,325.044
				c-2.901-4.396-5.573-9.004-7.938-13.696l5.507-2.778c2.259,4.48,4.809,8.88,7.578,13.074L127.965,325.044z M355.53,324.944
				l-5.15-3.394c2.768-4.205,5.317-8.606,7.571-13.091l5.513,2.771C361.101,315.927,358.432,320.541,355.53,324.944z
				 M113.732,296.813c-1.806-4.946-3.338-10.05-4.551-15.169l6.002-1.425c1.159,4.886,2.62,9.76,4.345,14.478L113.732,296.813z
				 M369.741,296.686l-5.795-2.107c1.717-4.721,3.176-9.596,4.331-14.491l6.002,1.413
				C373.07,286.633,371.542,291.741,369.741,296.686z M106.435,266.046c-0.608-5.207-0.919-10.522-0.925-15.8l6.17-0.007
				c0.005,5.042,0.301,10.118,0.882,15.093L106.435,266.046z M377.231,265.903l-6.381-0.709c0.574-4.975,0.611-10.053,0.611-15.096
				v-0.522h6.902v0.522C378.364,255.376,377.835,260.694,377.231,265.903z M112.529,235.143l-6.128-0.702
				c0.599-5.235,1.512-10.485,2.715-15.599l6.004,1.409C113.975,225.135,113.102,230.144,112.529,235.143z M370.851,234.726
				c-0.584-4.987-1.476-9.997-2.638-14.88l6.002-1.433c1.22,5.119,2.148,10.366,2.764,15.593L370.851,234.726z M119.434,205.753
				l-5.797-2.104c1.795-4.948,3.902-9.846,6.265-14.554l5.515,2.769C123.16,196.357,121.148,201.03,119.434,205.753z
				 M363.854,205.37c-1.723-4.709-3.75-9.373-6.022-13.866l5.506-2.783c2.379,4.708,4.504,9.596,6.308,14.528L363.854,205.37z
				 M132.973,178.767l-5.154-3.389c2.889-4.396,6.069-8.672,9.452-12.707l4.728,3.96
				C138.768,170.487,135.732,174.571,132.973,178.767z M350.242,178.439c-2.769-4.185-5.818-8.255-9.059-12.103l4.715-3.975
				c3.396,4.025,6.589,8.291,9.487,12.673L350.242,178.439z M152.366,155.622l-4.24-4.483c3.82-3.612,7.896-7.042,12.111-10.195
				l3.695,4.94C159.904,148.895,156.013,152.171,152.366,155.622z M330.785,155.359c-3.662-3.444-7.566-6.711-11.598-9.706
				l3.679-4.953c4.226,3.14,8.309,6.559,12.144,10.166L330.785,155.359z M176.541,137.551l-3.096-5.336
				c4.551-2.641,9.303-5.04,14.129-7.134l2.456,5.659C185.422,132.739,180.884,135.03,176.541,137.551z M306.55,137.353
				c-4.36-2.512-8.908-4.79-13.523-6.774l2.437-5.666c4.834,2.077,9.601,4.464,14.166,7.095L306.55,137.353z M204.226,125.549
				l-1.776-5.908c5.037-1.516,10.221-2.747,15.408-3.662l1.073,6.074C213.979,122.927,209.032,124.103,204.226,125.549z
				 M278.804,125.43c-4.802-1.428-9.752-2.586-14.715-3.448l1.055-6.078c5.198,0.901,10.387,2.118,15.419,3.614L278.804,125.43z
				 M233.946,120.291l-0.363-6.157c5.223-0.308,10.566-0.316,15.83-0.024l-0.341,6.16C244.044,119.991,238.933,120,233.946,120.291z
				"/>
		</g>
	</g>
	<g>
		<g>
			<path fill="#F1F2F2" stroke="#231F20" stroke-width="5.8599" stroke-linejoin="round" stroke-miterlimit="10" d="
				M184.012,263.099l6.537-6.54c9.8-9.799,18.324-6.936,22.678-2.583l19.609,19.606c4.357,4.36,7.136,12.8-2.667,22.605
				l-23.959,23.957c0,0-32.217-3.885-84.594-56.265c-52.378-52.376-54.089-82.409-54.089-82.409l23.966-23.962
				c5.103-5.104,12.813-12.455,21.528-3.739l19.606,19.607c8.709,8.708,3.589,18.65-1.514,23.752l-6.535,6.537
				c0,0-6.721,8.527,21.007,36.251C173.31,267.649,184.012,263.099,184.012,263.099z"/>
		</g>
	</g>
	<g>
		<polygon fill="#FFFFFF" points="309.35,108.787 156.137,108.787 156.137,148.815 224.445,148.815 233.453,162.714 
			242.464,148.815 309.35,148.815 		"/>
		
			<line fill="none" stroke="#231F20" stroke-width="5.8599" stroke-linejoin="round" stroke-miterlimit="10" x1="171.32" y1="122.59" x2="218.25" y2="122.59"/>
		
			<line fill="none" stroke="#231F20" stroke-width="5.8599" stroke-linejoin="round" stroke-miterlimit="10" x1="171.32" y1="136.393" x2="295.547" y2="136.393"/>
	</g>
	<g>
		<polygon fill="#FFFFFF" points="270.701,194.365 157.517,194.365 157.517,223.351 207.808,223.351 214.42,233.551 
			221.032,223.351 270.701,223.351 		"/>
		
			<line fill="none" stroke="#231F20" stroke-width="5.8599" stroke-linejoin="round" stroke-miterlimit="10" x1="168.56" y1="202.647" x2="201.687" y2="202.647"/>
		
			<line fill="none" stroke="#231F20" stroke-width="5.8599" stroke-linejoin="round" stroke-miterlimit="10" x1="168.56" y1="213.689" x2="259.659" y2="213.689"/>
	</g>
	<g>
		<polygon fill="#FFFFFF" points="258.278,358.619 410.111,358.619 410.111,318.59 342.228,318.59 333.22,304.691 324.21,318.59 
			258.278,318.59 		"/>
		
			<line fill="none" stroke="#231F20" stroke-width="5.8599" stroke-linejoin="round" stroke-miterlimit="10" x1="394.928" y1="344.817" x2="349.378" y2="344.817"/>
		
			<line fill="none" stroke="#231F20" stroke-width="5.8599" stroke-linejoin="round" stroke-miterlimit="10" x1="394.928" y1="331.012" x2="272.081" y2="331.012"/>
	</g>
	<g>
		<path fill="#FFFFFF" d="M362.143,189.038c4.074,0,7.95,0.772,11.554,2.12l27.568-27.573c-11.185-7.506-24.635-11.89-39.122-11.89
			c-15.232,0-29.289,4.896-40.81,13.123l27.19,27.19C352.677,190.118,357.284,189.038,362.143,189.038z"/>
		<path fill="#FFFFFF" d="M419.697,181.683l-27.273,27.273c1.735,4.006,2.704,8.422,2.704,13.067c0,4.859-1.077,9.463-2.97,13.615
			l27.191,27.189c8.227-11.516,13.123-25.576,13.123-40.805C432.473,207,427.72,193.107,419.697,181.683z"/>
		<path fill="#FFFFFF" d="M329.157,222.023c0-3.849,0.693-7.521,1.907-10.948L303.4,183.408
			c-7.305,11.087-11.583,24.344-11.583,38.615c0,14.481,4.384,27.936,11.891,39.126l27.575-27.577
			C329.933,229.972,329.157,226.093,329.157,222.023z"/>
		<path fill="#FFFFFF" d="M362.143,255.006c-4.642,0-9.059-0.97-13.066-2.702l-27.272,27.276
			c11.425,8.02,25.319,12.769,40.339,12.769c14.27,0,27.526-4.281,38.612-11.582l-27.66-27.665
			C369.666,254.314,365.992,255.006,362.143,255.006z"/>
		<path fill="none" stroke="#231F20" stroke-width="5.8599" stroke-linejoin="round" stroke-miterlimit="10" d="M373.696,191.158
			c-3.604-1.348-7.479-2.12-11.554-2.12c-4.858,0-9.466,1.08-13.619,2.971c-8.123,3.693-14.468,10.576-17.459,19.066
			c-1.214,3.428-1.907,7.1-1.907,10.948c0,4.069,0.775,7.948,2.126,11.549c3.146,8.399,9.594,15.188,17.793,18.731
			c4.008,1.732,8.425,2.702,13.066,2.702c3.85,0,7.523-0.691,10.952-1.904c8.484-2.988,15.374-9.332,19.063-17.463
			c1.893-4.152,2.97-8.756,2.97-13.615c0-4.646-0.969-9.062-2.704-13.067C388.881,200.755,382.097,194.308,373.696,191.158z"/>
		<path fill="#3B9ADA" stroke="#231F20" stroke-width="5.8599" stroke-linejoin="round" stroke-miterlimit="10" d="M348.523,192.009
			l-27.19-27.19c-7.062,5.045-13.152,11.332-17.933,18.59l27.664,27.667C334.056,202.585,340.4,195.702,348.523,192.009z"/>
		<path fill="#3B9ADA" stroke="#231F20" stroke-width="5.8599" stroke-linejoin="round" stroke-miterlimit="10" d="M392.424,208.956
			l27.273-27.273c-4.984-7.1-11.222-13.26-18.433-18.098l-27.568,27.573C382.097,194.308,388.881,200.755,392.424,208.956z"/>
		<path fill="#3B9ADA" stroke="#231F20" stroke-width="5.8599" stroke-linejoin="round" stroke-miterlimit="10" d="M373.095,253.102
			l27.66,27.665c7.261-4.779,13.551-10.881,18.595-17.938l-27.191-27.189C388.469,243.77,381.579,250.113,373.095,253.102z"/>
		<path fill="#3B9ADA" stroke="#231F20" stroke-width="5.8599" stroke-linejoin="round" stroke-miterlimit="10" d="M331.283,233.572
			l-27.575,27.577c4.834,7.207,10.995,13.439,18.096,18.431l27.272-27.276C340.877,248.76,334.429,241.972,331.283,233.572z"/>
	</g>
	<path fill="none" stroke="#231F20" stroke-width="5.8599" stroke-linejoin="round" stroke-miterlimit="10" d="M219.963,306.392
		l18.648,13.753c0,0,12.256,6.7,3.236,20.193c-9.02,13.498-9.406,16.313-9.406,16.313"/>
	<path fill="#3B9ADA" d="M96.835,323.641c0-28.429,23.046-51.472,51.472-51.472c28.428,0,51.245,23.043,51.245,51.472
		c0,26.085-18.57,47.621-44.795,50.997v12.605l-17.428-13.264C114.065,369.038,96.835,348.382,96.835,323.641z"/>
	<g>
		
			<rect x="142.334" y="317.21" fill="none" stroke="#231F20" stroke-width="5.8599" stroke-linejoin="round" stroke-miterlimit="10" width="11.043" height="34.507"/>
		
			<circle fill="none" stroke="#231F20" stroke-width="5.8599" stroke-linejoin="round" stroke-miterlimit="10" cx="148.207" cy="296.647" r="7.157"/>
	</g>
</g>
</svg>
