<?xml version="1.0" encoding="utf-8"?>
<!-- Generator: Adobe Illustrator 16.0.0, SVG Export Plug-In . SVG Version: 6.00 Build 0)  -->
<!DOCTYPE svg PUBLIC "-//W3C//DTD SVG 1.1//EN" "http://www.w3.org/Graphics/SVG/1.1/DTD/svg11.dtd">
<svg version="1.1" id="Layer_1" xmlns="http://www.w3.org/2000/svg" xmlns:xlink="http://www.w3.org/1999/xlink" x="0px" y="0px"
	 width="500px" height="500px" viewBox="0 0 500 500" enable-background="new 0 0 500 500" xml:space="preserve">
<circle fill="#DD3636" cx="250" cy="250" r="230.5"/>
<g>
	<g>
		<g>
			<polygon fill="#F1F2F2" points="311.677,121.204 186.676,121.204 186.676,351.964 350.891,351.964 350.891,160.037 			"/>
			<polyline fill="#D1D3D4" stroke="#231F20" stroke-width="5.8599" stroke-linejoin="round" stroke-miterlimit="10" points="
				311.179,121.204 311.179,159.843 350.891,159.843 			"/>
		</g>
		<g>
			<polygon fill="#FFFFFF" points="273.423,149.109 149.109,149.109 149.109,378.796 312.252,378.796 312.252,187.041 			"/>
			<polyline fill="#D1D3D4" stroke="#231F20" stroke-width="5.8599" stroke-linejoin="round" stroke-miterlimit="10" points="
				272.54,149.109 272.54,187.749 312.252,187.749 			"/>
		</g>
		
			<line fill="none" stroke="#231F20" stroke-width="5.8599" stroke-linejoin="round" stroke-miterlimit="10" x1="169.503" y1="224.241" x2="265.026" y2="224.241"/>
		
			<line fill="none" stroke="#231F20" stroke-width="5.8599" stroke-linejoin="round" stroke-miterlimit="10" x1="215.654" y1="246.78" x2="289.713" y2="246.78"/>
		
			<line fill="none" stroke="#231F20" stroke-width="5.8599" stroke-linejoin="round" stroke-miterlimit="10" x1="169.503" y1="246.78" x2="188.822" y2="246.78"/>
		
			<line fill="none" stroke="#231F20" stroke-width="5.8599" stroke-linejoin="round" stroke-miterlimit="10" x1="169.503" y1="270.393" x2="289.713" y2="270.393"/>
		
			<line fill="none" stroke="#231F20" stroke-width="5.8599" stroke-linejoin="round" stroke-miterlimit="10" x1="263.953" y1="291.858" x2="289.713" y2="291.858"/>
		
			<line fill="none" stroke="#231F20" stroke-width="5.8599" stroke-linejoin="round" stroke-miterlimit="10" x1="169.503" y1="291.858" x2="256.44" y2="291.858"/>
		
			<line fill="none" stroke="#231F20" stroke-width="5.8599" stroke-linejoin="round" stroke-miterlimit="10" x1="169.503" y1="314.397" x2="289.713" y2="314.397"/>
		
			<line fill="none" stroke="#231F20" stroke-width="5.8599" stroke-linejoin="round" stroke-miterlimit="10" x1="207.068" y1="336.938" x2="289.713" y2="336.938"/>
		
			<line fill="none" stroke="#231F20" stroke-width="5.8599" stroke-linejoin="round" stroke-miterlimit="10" x1="169.503" y1="336.938" x2="189.896" y2="336.938"/>
		
			<line fill="none" stroke="#231F20" stroke-width="5.8599" stroke-linejoin="round" stroke-miterlimit="10" x1="274.687" y1="359.477" x2="289.713" y2="359.477"/>
		
			<line fill="none" stroke="#231F20" stroke-width="5.8599" stroke-linejoin="round" stroke-miterlimit="10" x1="169.503" y1="359.477" x2="262.88" y2="359.477"/>
		<circle fill="#E6E7E8" cx="186.241" cy="183.087" r="16.878"/>
		
			<line fill="none" stroke="#231F20" stroke-width="5.8599" stroke-linejoin="round" stroke-miterlimit="10" x1="208.554" y1="177.267" x2="236.46" y2="177.267"/>
		
			<line fill="none" stroke="#231F20" stroke-width="5.8599" stroke-linejoin="round" stroke-miterlimit="10" x1="208.554" y1="188" x2="259" y2="188"/>
	</g>
</g>
</svg>
